<mxfile host="app.diagrams.net" modified="2023-01-20T18:49:40.726Z" agent="5.0 (X11; Linux x86_64) AppleWebKit/537.36 (KHTML, like Gecko) Chrome/104.0.0.0 Safari/537.36" version="20.8.3" etag="ldPfci-WldVpTRdgegNt" type="github">
  <diagram id="6Pzivr9ziPLcZba1mMqX" name="Seite-1">
    <mxGraphModel dx="1362" dy="746" grid="1" gridSize="10" guides="1" tooltips="1" connect="1" arrows="1" fold="1" page="1" pageScale="1" pageWidth="827" pageHeight="1169" math="0" shadow="0">
      <root>
        <mxCell id="0" />
        <mxCell id="1" parent="0" />
        <mxCell id="iUGFWTXhvQGHvEnmHGg8-1" value="WEB BROWSER" style="rounded=0;whiteSpace=wrap;html=1;" vertex="1" parent="1">
          <mxGeometry x="10" y="170" width="70" height="430" as="geometry" />
        </mxCell>
        <mxCell id="iUGFWTXhvQGHvEnmHGg8-2" value="ANGULAR" style="ellipse;whiteSpace=wrap;html=1;aspect=fixed;" vertex="1" parent="1">
          <mxGeometry x="170" y="340" width="110" height="110" as="geometry" />
        </mxCell>
        <mxCell id="iUGFWTXhvQGHvEnmHGg8-4" value="" style="endArrow=classic;startArrow=classic;html=1;rounded=0;" edge="1" parent="1">
          <mxGeometry width="50" height="50" relative="1" as="geometry">
            <mxPoint x="290" y="430" as="sourcePoint" />
            <mxPoint x="360" y="520" as="targetPoint" />
          </mxGeometry>
        </mxCell>
        <mxCell id="iUGFWTXhvQGHvEnmHGg8-6" value="KREDITNEHMER" style="shape=umlActor;verticalLabelPosition=bottom;verticalAlign=top;html=1;outlineConnect=0;" vertex="1" parent="1">
          <mxGeometry x="350" y="660" width="30" height="60" as="geometry" />
        </mxCell>
        <mxCell id="iUGFWTXhvQGHvEnmHGg8-7" value="BANK" style="shape=umlActor;verticalLabelPosition=bottom;verticalAlign=top;html=1;outlineConnect=0;" vertex="1" parent="1">
          <mxGeometry x="480" y="660" width="30" height="60" as="geometry" />
        </mxCell>
        <mxCell id="iUGFWTXhvQGHvEnmHGg8-8" value="" style="endArrow=classic;startArrow=classic;html=1;rounded=0;" edge="1" parent="1">
          <mxGeometry width="50" height="50" relative="1" as="geometry">
            <mxPoint x="290" y="370" as="sourcePoint" />
            <mxPoint x="380" y="300" as="targetPoint" />
          </mxGeometry>
        </mxCell>
        <mxCell id="iUGFWTXhvQGHvEnmHGg8-9" value="" style="endArrow=classic;startArrow=classic;html=1;rounded=0;" edge="1" parent="1">
          <mxGeometry width="50" height="50" relative="1" as="geometry">
            <mxPoint x="90" y="394.5" as="sourcePoint" />
            <mxPoint x="160" y="394.5" as="targetPoint" />
          </mxGeometry>
        </mxCell>
        <mxCell id="iUGFWTXhvQGHvEnmHGg8-13" value="SERVICE" style="ellipse;whiteSpace=wrap;html=1;aspect=fixed;" vertex="1" parent="1">
          <mxGeometry x="390" y="210" width="104" height="104" as="geometry" />
        </mxCell>
        <mxCell id="iUGFWTXhvQGHvEnmHGg8-14" value="KEYCLOAK" style="ellipse;whiteSpace=wrap;html=1;aspect=fixed;" vertex="1" parent="1">
          <mxGeometry x="362" y="500" width="104" height="104" as="geometry" />
        </mxCell>
        <mxCell id="iUGFWTXhvQGHvEnmHGg8-15" value="" style="endArrow=classic;startArrow=classic;html=1;rounded=0;" edge="1" parent="1">
          <mxGeometry width="50" height="50" relative="1" as="geometry">
            <mxPoint x="150" y="570" as="sourcePoint" />
            <mxPoint x="340" y="570" as="targetPoint" />
          </mxGeometry>
        </mxCell>
        <mxCell id="iUGFWTXhvQGHvEnmHGg8-22" value="DATENBANK" style="ellipse;whiteSpace=wrap;html=1;aspect=fixed;" vertex="1" parent="1">
          <mxGeometry x="600" y="353" width="110" height="110" as="geometry" />
        </mxCell>
        <mxCell id="iUGFWTXhvQGHvEnmHGg8-23" value="Camunda" style="ellipse;whiteSpace=wrap;html=1;aspect=fixed;" vertex="1" parent="1">
          <mxGeometry x="414" y="360" width="96" height="96" as="geometry" />
        </mxCell>
        <mxCell id="iUGFWTXhvQGHvEnmHGg8-24" value="" style="endArrow=classic;startArrow=classic;html=1;rounded=0;" edge="1" parent="1">
          <mxGeometry width="50" height="50" relative="1" as="geometry">
            <mxPoint x="290" y="400" as="sourcePoint" />
            <mxPoint x="400" y="400" as="targetPoint" />
          </mxGeometry>
        </mxCell>
        <mxCell id="iUGFWTXhvQGHvEnmHGg8-25" value="" style="endArrow=classic;startArrow=classic;html=1;rounded=0;" edge="1" parent="1">
          <mxGeometry width="50" height="50" relative="1" as="geometry">
            <mxPoint x="530" y="420" as="sourcePoint" />
            <mxPoint x="590" y="420" as="targetPoint" />
          </mxGeometry>
        </mxCell>
        <mxCell id="iUGFWTXhvQGHvEnmHGg8-26" value="" style="endArrow=classic;startArrow=classic;html=1;rounded=0;" edge="1" parent="1">
          <mxGeometry width="50" height="50" relative="1" as="geometry">
            <mxPoint x="480" y="560" as="sourcePoint" />
            <mxPoint x="610" y="480" as="targetPoint" />
          </mxGeometry>
        </mxCell>
        <mxCell id="iUGFWTXhvQGHvEnmHGg8-27" value="" style="endArrow=classic;startArrow=classic;html=1;rounded=0;" edge="1" parent="1">
          <mxGeometry width="50" height="50" relative="1" as="geometry">
            <mxPoint x="500" y="274" as="sourcePoint" />
            <mxPoint x="590" y="360" as="targetPoint" />
          </mxGeometry>
        </mxCell>
      </root>
    </mxGraphModel>
  </diagram>
</mxfile>
